<svg width="36" height="35" viewBox="0 0 36 35" fill="none" xmlns="http://www.w3.org/2000/svg">
<path d="M18.0001 23.3332C21.2217 23.3332 23.8334 20.7215 23.8334 17.4998C23.8334 14.2782 21.2217 11.6665 18.0001 11.6665C14.7784 11.6665 12.1667 14.2782 12.1667 17.4998C12.1667 20.7215 14.7784 23.3332 18.0001 23.3332Z" stroke="#8F88FF" stroke-width="3" stroke-linecap="round" stroke-linejoin="round"/>
<path d="M23.8334 11.6666V18.9582C23.8334 20.1186 24.2944 21.2314 25.1148 22.0518C25.9353 22.8723 27.0481 23.3332 28.2084 23.3332C29.3688 23.3332 30.4816 22.8723 31.302 22.0518C32.1225 21.2314 32.5834 20.1186 32.5834 18.9582V17.4999C32.5832 14.2085 31.4696 11.0139 29.4236 8.43568C27.3776 5.85743 24.5197 4.04711 21.3144 3.29909C18.1091 2.55107 14.745 2.90934 11.7691 4.31565C8.79329 5.72196 6.38067 8.09359 4.9236 11.0449C3.46652 13.9962 3.05067 17.3537 3.74367 20.5713C4.43668 23.789 6.19777 26.6775 8.7406 28.7674C11.2834 30.8572 14.4584 32.0254 17.7494 32.082C21.0403 32.1386 24.2536 31.0803 26.8668 29.0791" stroke="#8F88FF" stroke-width="3" stroke-linecap="round" stroke-linejoin="round"/>
</svg>
