<svg width="36" height="35" viewBox="0 0 36 35" fill="none" xmlns="http://www.w3.org/2000/svg">
<g id="twitter 1" clip-path="url(#clip0_10_135)">
<path id="Vector" d="M34.0416 4.37489C32.6451 5.35997 31.0988 6.11339 29.4624 6.60614C28.5841 5.59626 27.4169 4.88049 26.1185 4.55562C24.8202 4.23075 23.4533 4.31247 22.203 4.78972C20.9526 5.26697 19.8789 6.11673 19.1272 7.22406C18.3755 8.3314 17.982 9.64288 17.9999 10.9811V12.4395C15.4371 12.5059 12.8976 11.9375 10.6076 10.7849C8.31767 9.6323 6.3483 7.93124 4.87492 5.83323C4.87492 5.83323 -0.958415 18.9582 12.1666 24.7916C9.16319 26.8303 5.58536 27.8525 1.95825 27.7082C15.0833 34.9999 31.1249 27.7082 31.1249 10.9374C31.1236 10.5312 31.0845 10.126 31.0083 9.72698C32.4966 8.25915 33.547 6.40593 34.0416 4.37489V4.37489Z" stroke="#4731D3" stroke-width="3" stroke-linecap="round" stroke-linejoin="round"/>
</g>
<defs>
<clipPath id="clip0_10_135">
<rect width="35" height="35" fill="white" transform="translate(0.5)"/>
</clipPath>
</defs>
</svg>
