<svg width="36" height="35" viewBox="0 0 36 35" fill="none" xmlns="http://www.w3.org/2000/svg">
<g clip-path="url(#clip0_2513_326)">
<path d="M34.0416 4.37502C32.6451 5.36009 31.0988 6.11351 29.4624 6.60627C28.5841 5.59639 27.4169 4.88061 26.1185 4.55574C24.8202 4.23087 23.4533 4.31259 22.203 4.78984C20.9526 5.26709 19.8789 6.11685 19.1272 7.22419C18.3755 8.33152 17.982 9.64301 17.9999 10.9813V12.4396C15.4371 12.5061 12.8976 11.9377 10.6076 10.785C8.31767 9.63242 6.3483 7.93136 4.87492 5.83335C4.87492 5.83335 -0.958415 18.9583 12.1666 24.7917C9.16319 26.8304 5.58536 27.8526 1.95825 27.7083C15.0833 35 31.1249 27.7083 31.1249 10.9375C31.1236 10.5313 31.0845 10.1261 31.0083 9.7271C32.4966 8.25928 33.547 6.40606 34.0416 4.37502V4.37502Z" stroke="#8F88FF" stroke-width="3" stroke-linecap="round" stroke-linejoin="round"/>
</g>
<defs>
<clipPath id="clip0_2513_326">
<rect width="35" height="35" fill="white" transform="translate(0.5)"/>
</clipPath>
</defs>
</svg>
